<?xml version="1.0" standalone="no"?><!DOCTYPE svg PUBLIC "-//W3C//DTD SVG 1.1//EN" "http://www.w3.org/Graphics/SVG/1.1/DTD/svg11.dtd"><svg t="1582282237266" class="icon" viewBox="0 0 1024 1024" version="1.1" xmlns="http://www.w3.org/2000/svg" p-id="3921" xmlns:xlink="http://www.w3.org/1999/xlink" width="200" height="200"><defs><style type="text/css"></style></defs><path d="M542.05859375 470.55047226v-174.34015274c-8.14730645 0-18.27215195-2.05633163-24.36389923-2.05633164h-2.05633164c-10.12484551 2.05710411-20.24969101 2.05710411-34.48797225 4.03464317v172.36261368H124.40234375V332.67583084c0-22.30679512 18.27215195-38.52261543 38.52261543-38.52261544H325.1611824c-42.55648613-10.12484551-74.98812676-28.39699746-77.04445838-62.88574218-2.05710411-40.57817459 44.61281777-107.41976738 111.53320312-91.20394707 68.89715195 16.21582031 117.54461288 68.97671699 154.0101242 115.56784631 36.46628379-46.66992188 91.20471953-107.49933243 162.23776818-117.62495041 62.88574219-8.14653397 111.53320313 52.68287659 105.44222831 93.26105117-6.0909748 34.48874473-38.52261543 54.73843574-81.07910156 62.88574218h160.18066406c22.30679512 0 38.52261543 18.27292442 38.52261544 38.52338792v137.87309646H542.05859375zM367.71844101 176.609375c-32.43164063-12.18194962-52.68133163 2.05633163-66.91961288 24.36389923-8.14730645 12.18117714-16.21582031 30.37376404-4.0338707 42.55571365 32.43164063 32.43164063 119.60094452 30.37530899 180.43035507 24.36389924-28.39776993-34.56830978-62.88574219-73.09015274-109.47687149-91.28351212z m364.97491837 66.84082031c22.30679512-30.45410156-22.30679512-91.20394707-70.95425606-68.89715194-46.66992188 22.30602264-79.1015625 56.79476738-109.47609902 93.26105117 24.36312676 2.05633163 50.70379257 2.05633163 74.98812675 2.05633164 32.43164063-2.05710411 89.22640801-4.11343574 105.44222832-26.42023087zM483.2862873 886.2291832H193.37906074c-20.32925605 0-36.54507637-16.21582031-36.54507637-36.46551133V498.94824219h326.45230293v387.28094101z m383.24707032-36.46551133c0 20.24969101-16.21582031 36.46551132-36.4662838 36.46551133H540.08105469V501.00457382h326.45230293v348.75909805z m0 0" p-id="3922"></path></svg>